<svg width="1655" height="390" viewBox="0 0 1655 390" fill="none" xmlns="http://www.w3.org/2000/svg">
<path d="M1.19209e-07 294V5.99999H176V60.4H54.4V122.8H152V177.2H54.4V294H1.19209e-07ZM303.45 300C281.717 300 262.65 295.133 246.25 285.4C229.85 275.667 217.05 262.267 207.85 245.2C198.783 228 194.25 208.267 194.25 186C194.25 163.467 198.917 143.667 208.25 126.6C217.583 109.4 230.45 96 246.85 86.4C263.25 76.8 282.117 72 303.45 72C325.183 72 344.25 76.8667 360.65 86.6C377.183 96.3333 390.05 109.8 399.25 127C408.45 144.067 413.05 163.733 413.05 186C413.05 208.4 408.383 228.2 399.05 245.4C389.85 262.467 376.983 275.867 360.45 285.6C344.05 295.2 325.05 300 303.45 300ZM303.45 249.2C320.917 249.2 333.917 243.333 342.45 231.6C351.117 219.733 355.45 204.533 355.45 186C355.45 166.8 351.05 151.467 342.25 140C333.583 128.533 320.65 122.8 303.45 122.8C291.583 122.8 281.85 125.467 274.25 130.8C266.65 136.133 260.983 143.533 257.25 153C253.65 162.467 251.85 173.467 251.85 186C251.85 205.333 256.183 220.733 264.85 232.2C273.65 243.533 286.517 249.2 303.45 249.2ZM457.031 294V78H505.031V130.8L499.831 124C502.631 116.533 506.365 109.733 511.031 103.6C515.698 97.4667 521.431 92.4 528.231 88.4C533.431 85.2 539.098 82.7333 545.231 81C551.365 79.1333 557.698 78 564.231 77.6C570.765 77.0667 577.298 77.2 583.831 78V128.8C577.831 126.933 570.831 126.333 562.831 127C554.965 127.533 547.831 129.333 541.431 132.4C535.031 135.333 529.631 139.267 525.231 144.2C520.831 149 517.498 154.733 515.231 161.4C512.965 167.933 511.831 175.333 511.831 183.6V294H457.031ZM881.875 294V166.4C881.875 152.133 878.475 141.067 871.675 133.2C865.008 125.2 855.742 121.2 843.875 121.2C836.275 121.2 829.675 123 824.075 126.6C818.475 130.067 814.075 135 810.875 141.4C807.808 147.667 806.275 154.933 806.275 163.2L783.475 148C783.475 133.2 786.942 120.133 793.875 108.8C800.942 97.4667 810.342 88.6667 822.075 82.4C833.942 76 847.075 72.8 861.475 72.8C886.142 72.8 904.742 80.1333 917.275 94.8C929.942 109.333 936.275 128.4 936.275 152V294H881.875ZM621.475 294V78H669.475V149.6H676.275V294H621.475ZM751.875 294V166.4C751.875 152.133 748.475 141.067 741.675 133.2C735.008 125.2 725.742 121.2 713.875 121.2C702.542 121.2 693.408 125.133 686.475 133C679.675 140.733 676.275 150.8 676.275 163.2L653.475 147.2C653.475 133.067 657.008 120.4 664.075 109.2C671.142 98 680.608 89.1333 692.475 82.6C704.475 76.0667 717.875 72.8 732.675 72.8C749.608 72.8 763.475 76.4 774.275 83.6C785.208 90.8 793.275 100.4 798.475 112.4C803.675 124.4 806.275 137.6 806.275 152V294H751.875ZM992.281 294V-5.72205e-06H1046.68V294H992.281ZM1134.24 390L1175.84 275.6L1176.64 309.2L1082.64 78H1139.04L1202.24 241.6H1189.44L1252.24 78H1306.64L1184.64 390H1134.24ZM1302.66 294L1390.66 5.99999H1471.86L1559.86 294H1503.86L1425.46 40H1435.86L1358.66 294H1302.66ZM1355.46 234V183.2H1507.46V234H1355.46ZM1599.7 294V5.99999H1654.1V294H1599.7Z" fill="#074EE8"></path>
</svg>
